<svg width="1080" height="1080" viewBox="0 0 1080 1080" fill="none" xmlns="http://www.w3.org/2000/svg">
<rect width="1080" height="1080" rx="160" fill="white"/>
<path d="M237.56 406.12V361.6H315.12V566H265.28V406.12H237.56ZM342.273 461C342.273 428.893 348.433 403.6 360.753 385.12C373.26 366.64 393.327 357.4 420.953 357.4C448.58 357.4 468.553 366.64 480.873 385.12C493.38 403.6 499.633 428.893 499.633 461C499.633 493.48 493.38 518.96 480.873 537.44C468.553 555.92 448.58 565.16 420.953 565.16C393.327 565.16 373.26 555.92 360.753 537.44C348.433 518.96 342.273 493.48 342.273 461ZM452.593 461C452.593 442.147 450.54 427.68 446.433 417.6C442.327 407.333 433.833 402.2 420.953 402.2C408.073 402.2 399.58 407.333 395.473 417.6C391.367 427.68 389.313 442.147 389.313 461C389.313 473.693 390.06 484.24 391.553 492.64C393.047 500.853 396.033 507.573 400.513 512.8C405.18 517.84 411.993 520.36 420.953 520.36C429.913 520.36 436.633 517.84 441.113 512.8C445.78 507.573 448.86 500.853 450.353 492.64C451.847 484.24 452.593 473.693 452.593 461ZM519.33 461C519.33 428.893 525.49 403.6 537.81 385.12C550.316 366.64 570.383 357.4 598.01 357.4C625.636 357.4 645.61 366.64 657.93 385.12C670.436 403.6 676.69 428.893 676.69 461C676.69 493.48 670.436 518.96 657.93 537.44C645.61 555.92 625.636 565.16 598.01 565.16C570.383 565.16 550.316 555.92 537.81 537.44C525.49 518.96 519.33 493.48 519.33 461ZM629.65 461C629.65 442.147 627.596 427.68 623.49 417.6C619.383 407.333 610.89 402.2 598.01 402.2C585.13 402.2 576.636 407.333 572.53 417.6C568.423 427.68 566.37 442.147 566.37 461C566.37 473.693 567.116 484.24 568.61 492.64C570.103 500.853 573.09 507.573 577.57 512.8C582.236 517.84 589.05 520.36 598.01 520.36C606.97 520.36 613.69 517.84 618.17 512.8C622.836 507.573 625.916 500.853 627.41 492.64C628.903 484.24 629.65 473.693 629.65 461Z" fill="#1F1F1F"/>
<path d="M793.546 566L763.586 522.6L738.386 566H686.586L738.106 486.2L685.186 409.76H738.946L768.906 452.88L794.106 409.76H845.906L793.546 488.44L847.306 566H793.546Z" fill="#0284c7"/>
<path d="M294.02 716.44C285.26 716.44 277.46 714.94 270.62 711.94C263.78 708.94 258.38 704.86 254.42 699.7C250.46 694.42 248.24 688.54 247.76 682.06H278.18C278.54 685.54 280.16 688.36 283.04 690.52C285.92 692.68 289.46 693.76 293.66 693.76C297.5 693.76 300.44 693.04 302.48 691.6C304.64 690.04 305.72 688.06 305.72 685.66C305.72 682.78 304.22 680.68 301.22 679.36C298.22 677.92 293.36 676.36 286.64 674.68C279.44 673 273.44 671.26 268.64 669.46C263.84 667.54 259.7 664.6 256.22 660.64C252.74 656.56 251 651.1 251 644.26C251 638.5 252.56 633.28 255.68 628.6C258.92 623.8 263.6 620.02 269.72 617.26C275.96 614.5 283.34 613.12 291.86 613.12C304.46 613.12 314.36 616.24 321.56 622.48C328.88 628.72 333.08 637 334.16 647.32H305.72C305.24 643.84 303.68 641.08 301.04 639.04C298.52 637 295.16 635.98 290.96 635.98C287.36 635.98 284.6 636.7 282.68 638.14C280.76 639.46 279.8 641.32 279.8 643.72C279.8 646.6 281.3 648.76 284.3 650.2C287.42 651.64 292.22 653.08 298.7 654.52C306.14 656.44 312.2 658.36 316.88 660.28C321.56 662.08 325.64 665.08 329.12 669.28C332.72 673.36 334.58 678.88 334.7 685.84C334.7 691.72 333.02 697 329.66 701.68C326.42 706.24 321.68 709.84 315.44 712.48C309.32 715.12 302.18 716.44 294.02 716.44ZM343.811 664.78C343.811 654.34 345.911 645.22 350.111 637.42C354.431 629.62 360.371 623.62 367.931 619.42C375.611 615.22 384.371 613.12 394.211 613.12C406.811 613.12 417.311 616.42 425.711 623.02C434.231 629.62 439.811 638.92 442.451 650.92H409.691C406.931 643.24 401.591 639.4 393.671 639.4C388.031 639.4 383.531 641.62 380.171 646.06C376.811 650.38 375.131 656.62 375.131 664.78C375.131 672.94 376.811 679.24 380.171 683.68C383.531 688 388.031 690.16 393.671 690.16C401.591 690.16 406.931 686.32 409.691 678.64H442.451C439.811 690.4 434.231 699.64 425.711 706.36C417.191 713.08 406.691 716.44 394.211 716.44C384.371 716.44 375.611 714.34 367.931 710.14C360.371 705.94 354.431 699.94 350.111 692.14C345.911 684.34 343.811 675.22 343.811 664.78ZM517.055 613.48C528.575 613.48 537.815 617.32 544.775 625C551.735 632.56 555.215 643 555.215 656.32V715H524.615V660.46C524.615 653.74 522.875 648.52 519.395 644.8C515.915 641.08 511.235 639.22 505.355 639.22C499.475 639.22 494.795 641.08 491.315 644.8C487.835 648.52 486.095 653.74 486.095 660.46V715H455.315V581.8H486.095V628.06C489.215 623.62 493.475 620.08 498.875 617.44C504.275 614.8 510.335 613.48 517.055 613.48ZM618.725 716.44C608.885 716.44 600.005 714.34 592.085 710.14C584.285 705.94 578.105 699.94 573.545 692.14C569.105 684.34 566.885 675.22 566.885 664.78C566.885 654.46 569.165 645.4 573.725 637.6C578.285 629.68 584.525 623.62 592.445 619.42C600.365 615.22 609.245 613.12 619.085 613.12C628.925 613.12 637.805 615.22 645.725 619.42C653.645 623.62 659.885 629.68 664.445 637.6C669.005 645.4 671.285 654.46 671.285 664.78C671.285 675.1 668.945 684.22 664.265 692.14C659.705 699.94 653.405 705.94 645.365 710.14C637.445 714.34 628.565 716.44 618.725 716.44ZM618.725 689.8C624.605 689.8 629.585 687.64 633.665 683.32C637.865 679 639.965 672.82 639.965 664.78C639.965 656.74 637.925 650.56 633.845 646.24C629.885 641.92 624.965 639.76 619.085 639.76C613.085 639.76 608.105 641.92 604.145 646.24C600.185 650.44 598.205 656.62 598.205 664.78C598.205 672.82 600.125 679 603.965 683.32C607.925 687.64 612.845 689.8 618.725 689.8ZM729.734 716.44C719.894 716.44 711.014 714.34 703.094 710.14C695.294 705.94 689.114 699.94 684.554 692.14C680.114 684.34 677.894 675.22 677.894 664.78C677.894 654.46 680.174 645.4 684.734 637.6C689.294 629.68 695.534 623.62 703.454 619.42C711.374 615.22 720.254 613.12 730.094 613.12C739.934 613.12 748.814 615.22 756.734 619.42C764.654 623.62 770.894 629.68 775.454 637.6C780.014 645.4 782.294 654.46 782.294 664.78C782.294 675.1 779.954 684.22 775.274 692.14C770.714 699.94 764.414 705.94 756.374 710.14C748.454 714.34 739.574 716.44 729.734 716.44ZM729.734 689.8C735.614 689.8 740.594 687.64 744.674 683.32C748.874 679 750.974 672.82 750.974 664.78C750.974 656.74 748.934 650.56 744.854 646.24C740.894 641.92 735.974 639.76 730.094 639.76C724.094 639.76 719.114 641.92 715.154 646.24C711.194 650.44 709.214 656.62 709.214 664.78C709.214 672.82 711.134 679 714.974 683.32C718.934 687.64 723.854 689.8 729.734 689.8ZM825.803 581.8V715H795.023V581.8H825.803Z" fill="#1F1F1F"/>
</svg>
